<svg width="29" height="38" viewBox="0 0 29 38" fill="none" xmlns="http://www.w3.org/2000/svg">
<path d="M26.1315 25.8207L20.3928 22.0906L22.5563 18.124C23.0607 17.1977 23.3253 16.16 23.3261 15.1053V8.82608C23.3261 6.48526 22.3962 4.24031 20.741 2.5851C19.0858 0.929888 16.8408 0 14.5 0C12.1592 0 9.91423 0.929888 8.25902 2.5851C6.60381 4.24031 5.67392 6.48526 5.67392 8.82608V15.1053C5.67471 16.16 5.93932 17.1978 6.44368 18.1241L8.60725 22.0906L2.86849 25.8207C1.98651 26.3917 1.26181 27.1747 0.760686 28.0981C0.259564 29.0216 -0.00197121 30.0559 1.11861e-05 31.1066V37.8261H29V31.1066C29.002 30.0559 28.7404 29.0216 28.2393 28.0981C27.7382 27.1747 27.0135 26.3917 26.1315 25.8207ZM26.4783 35.3043H2.52175V31.1066C2.52057 30.4762 2.6775 29.8555 2.97819 29.3015C3.27888 28.7474 3.71371 28.2776 4.24291 27.935L11.9389 22.9326L8.65753 16.9166C8.35492 16.3608 8.19615 15.7381 8.19566 15.1053V8.82608C8.19566 7.15406 8.85986 5.55053 10.0422 4.36824C11.2245 3.18594 12.828 2.52174 14.5 2.52174C16.172 2.52174 17.7756 3.18594 18.9578 4.36824C20.1401 5.55053 20.8043 7.15406 20.8043 8.82608V15.1053C20.8039 15.7381 20.6451 16.3608 20.3425 16.9166L17.0611 22.9326L24.7573 27.935C25.2865 28.2776 25.7213 28.7474 26.0219 29.3015C26.3226 29.8556 26.4795 30.4762 26.4783 31.1066V35.3043Z" fill="black"/>
</svg>
