<svg width="130" height="67" viewBox="0 0 130 67" fill="none" xmlns="http://www.w3.org/2000/svg">
<rect x="0.719727" y="0.967529" width="128.505" height="65.9" rx="9.885" fill="#111111"/>
<path d="M88.6985 48.7274C92.0276 48.7274 93.5945 47.4572 94.9631 43.6067L100.959 26.7894H97.4875L93.4667 39.8004H93.3962L89.3755 26.8071H85.8055L91.59 42.8138L91.2801 43.7874C91.0613 45.181 89.8101 46.1752 88.4018 46.0724C88.1331 46.0724 87.6118 46.0445 87.4003 46.0166V48.6599C87.8306 48.7186 88.2653 48.7465 88.6985 48.745V48.7274ZM77.1296 40.3055C75.3087 40.3055 74.153 39.4244 74.153 38.091C74.153 36.7092 75.2675 35.9044 77.3983 35.7767L81.193 35.5373V36.7797C81.1093 38.8268 79.3808 40.4201 77.3337 40.3364C77.2647 40.3334 77.1972 40.3276 77.1296 40.3217V40.3055ZM76.2133 42.9151C78.2794 42.9709 80.212 41.8945 81.2502 40.1073H81.3207V42.7506H84.4809V31.8029C84.4809 28.628 81.9419 26.5824 78.0327 26.5824C74.407 26.5824 71.7255 28.6559 71.6271 31.5063H74.7036C75.0708 30.0569 76.4482 29.1009 77.9343 29.2624C80.0226 29.2624 81.193 30.236 81.193 32.0276V33.2406L76.9343 33.4946C72.9693 33.734 70.8253 35.3567 70.8253 38.1792C70.8224 41.0413 73.0369 42.9312 76.2118 42.9312L76.2133 42.9151ZM57.8996 23.6292H61.8351C64.7986 23.6292 66.4918 25.2093 66.4918 27.9892C66.4918 30.7691 64.7986 32.3624 61.8219 32.3624H57.8996V23.6292ZM54.4853 20.751V42.7462H57.8996V35.248H62.6267C66.4771 35.4551 69.7651 32.5019 69.9721 28.6515C69.9839 28.4327 69.9853 28.2154 69.9765 27.9966C70.1586 24.1887 67.2201 20.9551 63.4123 20.7715C63.1876 20.7612 62.9644 20.7627 62.7397 20.773L54.4853 20.751ZM43.1528 24.8554C41.1909 24.7424 39.5124 25.97 38.5814 25.97C37.6504 25.97 36.2112 24.9127 34.659 24.9421C32.6031 24.9949 30.7293 26.133 29.7351 27.9334C27.619 31.5738 29.1844 36.9632 31.2301 39.9252C32.2316 41.3937 33.4328 43.0017 35.0115 42.9444C36.5064 42.8886 37.0997 41.9708 38.9059 41.9708C40.7122 41.9708 41.2482 42.9444 42.8283 42.9151C44.4642 42.8872 45.4951 41.4466 46.4996 39.9781C47.2074 38.9384 47.7581 37.8003 48.1355 36.6005C46.2073 35.7576 44.9576 33.8588 44.9474 31.7545C44.9767 29.8983 45.9489 28.186 47.529 27.2124C46.5216 25.7821 44.9048 24.9039 43.1558 24.8422L43.1528 24.8554ZM41.9281 22.9126C41.069 23.9949 39.7547 24.6161 38.3729 24.5911C38.2848 23.243 38.7429 21.917 39.6431 20.9096C40.5389 19.8699 41.8018 19.2178 43.1675 19.0901C43.2645 20.4764 42.8195 21.845 41.9252 22.9082" fill="white"/>
</svg>
