<svg width="130" height="67" viewBox="0 0 130 67" fill="none" xmlns="http://www.w3.org/2000/svg">
<rect x="0.774414" y="0.967529" width="128.505" height="65.9" rx="9.885" fill="#FF7E00"/>
<path d="M64.7148 32.7305C65.9282 33.1349 68.5684 34.0149 69.1533 32.1778C69.7503 30.2981 67.178 29.558 65.9186 29.1957C65.7759 29.1546 65.65 29.1184 65.5475 29.0859L64.4197 32.6337C64.5043 32.6603 64.6036 32.6934 64.7148 32.7305Z" fill="white"/>
<path d="M62.9534 38.4459C64.4068 38.9277 67.5856 39.9815 68.2286 37.9572C68.8867 35.8873 65.7969 34.9907 64.2893 34.5531C64.1211 34.5043 63.9721 34.4611 63.8507 34.4227L62.607 38.3327C62.7064 38.364 62.8232 38.4027 62.9534 38.4459Z" fill="white"/>
<path fill-rule="evenodd" clip-rule="evenodd" d="M81.4674 34.9474C80.8986 44.0282 73.0764 50.9286 63.9961 50.3598C54.9158 49.7911 48.0158 41.9686 48.5845 32.8878C49.1533 23.807 56.9755 16.9067 66.0558 17.4754C75.1362 18.0442 82.0361 25.8666 81.4674 34.9474ZM69.3586 28.0562C71.5964 28.9848 73.1958 30.2657 72.7305 32.4338C72.3917 34.0215 71.4514 34.7408 70.2496 34.938C71.8223 35.8828 72.2761 37.5174 71.6402 39.4196C70.4884 42.1423 68.1506 42.2312 65.097 41.4558L64.1592 44.4013L62.3762 43.8376L63.3011 40.9315C62.8388 40.7859 62.3667 40.6315 61.8806 40.4679L60.9517 43.3882L59.1707 42.8246L60.1078 39.8728L56.5169 38.7273L57.5462 36.7173C57.5462 36.7173 58.8597 37.1536 58.8427 37.1267C59.3477 37.2853 59.5967 36.9665 59.7003 36.7511L62.2422 28.756C62.2889 28.374 62.1861 27.8825 61.4637 27.6535C61.4928 27.6357 60.1682 27.2452 60.1682 27.2452L60.771 25.3479L64.368 26.4783L65.2968 23.56L67.0788 24.1237L66.1692 26.9843C66.6494 27.1248 67.1316 27.2675 67.6 27.4155L68.5033 24.5731L70.2864 25.1368L69.3586 28.0562Z" fill="white"/>
</svg>
