<svg width="129" height="67" viewBox="0 0 129 67" fill="none" xmlns="http://www.w3.org/2000/svg">
<rect x="0.0898438" y="0.967529" width="128.505" height="65.9" rx="9.885" fill="#CCECFF"/>
<path d="M74.8881 25.7239C74.8881 25.9001 74.8881 26.0763 74.7119 26.2525C73.3023 33.3007 68.721 35.5913 62.7301 35.5913H59.7346C59.0298 35.5913 58.325 36.1199 58.325 36.8247L56.7391 46.6922L56.3867 49.5114C56.3867 50.04 56.7391 50.3924 57.0915 50.3924H62.5539C63.2587 50.3924 63.7873 49.8638 63.7873 49.3352V48.9828L64.8445 42.6395V42.2871C65.0207 41.5822 65.5493 41.2298 66.0779 41.2298H66.959C72.2451 41.2298 76.2978 39.1154 77.355 32.9482C77.8836 30.3052 77.5312 28.1907 76.2978 26.7811C75.9454 26.4287 75.4168 26.0763 74.8881 25.7239Z" fill="#2199D6"/>
<path d="M73.4787 25.1956C73.3025 25.1956 73.1263 25.0194 72.7739 25.0194C72.5977 25.0194 72.2453 24.8432 72.0691 24.8432C71.1881 24.667 70.307 24.667 69.426 24.667H61.3207C61.1445 24.667 60.9682 24.667 60.792 24.8432C60.4396 25.0194 60.0872 25.3718 60.0872 25.7242L58.3252 36.6489V37.0013C58.5014 36.2965 59.03 35.7679 59.7348 35.7679H62.7303C68.7212 35.7679 73.3025 33.301 74.7121 26.429C74.7121 26.2528 74.7122 26.0766 74.8884 25.9004C74.536 25.7242 74.1835 25.548 73.8311 25.3718C73.6549 25.1956 73.4787 25.1956 73.4787 25.1956Z" fill="#252C5E"/>
<path d="M60.0869 25.7242C60.0869 25.3718 60.4393 25.0194 60.7917 24.8432C60.9679 24.8432 61.1441 24.667 61.3203 24.667H69.4257C70.3067 24.667 71.3639 24.667 72.0687 24.8432C72.2449 24.8432 72.5974 24.8432 72.7736 25.0194C72.9498 25.0194 73.126 25.1956 73.4784 25.1956C73.6546 25.1956 73.6546 25.1956 73.8308 25.3718C74.1832 25.548 74.5356 25.7242 74.888 25.9004C75.2404 23.2574 74.888 21.4953 73.4784 19.9095C71.8925 18.1474 69.0733 17.4426 65.5492 17.4426H55.1532C54.4484 17.4426 53.7435 17.9712 53.7435 18.676L49.5146 45.8115C49.5146 46.3401 49.8671 46.8687 50.3957 46.8687H56.739L58.3248 36.6489L60.0869 25.7242Z" fill="#263577"/>
</svg>
