<svg width="37" height="37" viewBox="0 0 37 37" fill="none" xmlns="http://www.w3.org/2000/svg">
<path d="M10.8047 6.00551V8.40654H33.6145V13.1595L30.9508 21.6122H10.0492L7.04793 0H0V2.40103H4.95723L7.95853 24.0133H32.7117L36.0155 13.5288V6.00551H10.8047Z" fill="black"/>
<path d="M12.079 26.4371C10.8059 26.4386 9.58532 26.945 8.68507 27.8452C7.78482 28.7455 7.27843 29.9661 7.27698 31.2392C7.27698 32.5128 7.78291 33.7342 8.68347 34.6348C9.58403 35.5353 10.8055 36.0413 12.079 36.0413C13.3526 36.0413 14.5741 35.5353 15.4746 34.6348C16.3752 33.7342 16.8811 32.5128 16.8811 31.2392C16.8797 29.9661 16.3733 28.7455 15.473 27.8452C14.5728 26.945 13.3522 26.4386 12.079 26.4371ZM12.079 33.6402C11.6042 33.6402 11.1399 33.4994 10.7451 33.2356C10.3503 32.9718 10.0425 32.5968 9.86078 32.158C9.67905 31.7193 9.6315 31.2365 9.72415 30.7708C9.81679 30.305 10.0455 29.8772 10.3813 29.5414C10.717 29.2056 11.1449 28.9769 11.6106 28.8843C12.0764 28.7917 12.5591 28.8392 12.9979 29.0209C13.4366 29.2027 13.8116 29.5104 14.0754 29.9053C14.3393 30.3001 14.4801 30.7643 14.4801 31.2392C14.4793 31.8758 14.2261 32.486 13.776 32.9362C13.3259 33.3863 12.7156 33.6395 12.079 33.6402Z" fill="black"/>
<path d="M28.8863 26.4371C27.6132 26.4386 26.3926 26.945 25.4923 27.8452C24.5921 28.7455 24.0857 29.9661 24.0842 31.2392C24.0842 32.5128 24.5902 33.7342 25.4907 34.6348C26.3913 35.5353 27.6127 36.0413 28.8863 36.0413C30.1599 36.0413 31.3813 35.5353 32.2819 34.6348C33.1824 33.7342 33.6884 32.5128 33.6884 31.2392C33.6869 29.9661 33.1805 28.7455 32.2803 27.8452C31.38 26.945 30.1594 26.4386 28.8863 26.4371ZM28.8863 33.6402C28.4114 33.6402 27.9472 33.4994 27.5524 33.2356C27.1575 32.9718 26.8498 32.5968 26.668 32.158C26.4863 31.7193 26.4388 31.2365 26.5314 30.7708C26.624 30.305 26.8527 29.8772 27.1885 29.5414C27.5243 29.2056 27.9521 28.9769 28.4179 28.8843C28.8836 28.7917 29.3664 28.8392 29.8051 29.0209C30.2439 29.2027 30.6189 29.5104 30.8827 29.9053C31.1465 30.3001 31.2873 30.7643 31.2873 31.2392C31.2866 31.8758 31.0334 32.486 30.5832 32.9362C30.1331 33.3863 29.5229 33.6395 28.8863 33.6402Z" fill="black"/>
</svg>
