<svg width="129" height="67" viewBox="0 0 129 67" fill="none" xmlns="http://www.w3.org/2000/svg">
<rect x="0.404297" y="0.967529" width="128.505" height="65.9" rx="9.885" fill="#6461FC"/>
<path fill-rule="evenodd" clip-rule="evenodd" d="M67.0897 23.1088L62.1086 24.1778V20.1393L67.0897 19.0901V23.1088ZM77.4483 25.3457C75.5035 25.3457 74.2533 26.2564 73.5587 26.8898L73.3007 25.6625H68.9349V48.7451L73.8961 47.6959L73.9159 42.0935C74.6303 42.6082 75.6821 43.3407 77.4285 43.3407C80.9807 43.3407 84.2154 40.49 84.2154 34.2145C84.1956 28.4736 80.9212 25.3457 77.4483 25.3457ZM76.2582 38.9853C75.0874 38.9853 74.3928 38.5696 73.9165 38.0549L73.8967 30.7104C74.4126 30.1363 75.127 29.7404 76.2582 29.7404C78.0641 29.7404 79.3143 31.7596 79.3143 34.353C79.3143 37.0057 78.0839 38.9853 76.2582 38.9853ZM99.854 34.4126C99.854 29.3447 97.3933 25.3458 92.69 25.3458C87.9669 25.3458 85.1093 29.3447 85.1093 34.373C85.1093 40.3317 88.4829 43.3408 93.3251 43.3408C95.6866 43.3408 97.4726 42.8063 98.8221 42.054V38.0947C97.4726 38.7678 95.9247 39.1835 93.9601 39.1835C92.0351 39.1835 90.3285 38.5104 90.1102 36.1745H99.8143C99.8143 36.0655 99.8215 35.818 99.8297 35.5329L99.8297 35.5323V35.5319C99.8409 35.1439 99.854 34.6863 99.854 34.4126ZM90.0502 32.5317C90.0502 30.2948 91.4195 29.3643 92.6697 29.3643C93.8803 29.3643 95.1702 30.2948 95.1702 32.5317H90.0502ZM62.1086 25.6825H67.0897V43.0043H62.1086V25.6825ZM56.4538 25.6824L56.7713 27.1473C57.9422 25.0093 60.2641 25.4448 60.8991 25.6824V30.2356C60.2839 30.0178 58.2994 29.7407 57.1286 31.265V43.0042H52.1673V25.6824H56.4538ZM46.8483 21.3864L42.0061 22.4158L41.9863 38.2727C41.9863 41.2026 44.1891 43.3604 47.1261 43.3604C48.7534 43.3604 49.9441 43.0634 50.599 42.7071V38.6884C49.964 38.9458 46.8285 39.8564 46.8285 36.9265V29.8988H50.599V25.6822H46.8285L46.8483 21.3864ZM35.1197 29.6417C34.0679 29.6417 33.4329 29.9386 33.4329 30.7107C33.4329 31.5536 34.5258 31.9244 35.8817 32.3845C38.0921 33.1344 41.0013 34.1215 41.0136 37.778C41.0136 41.3215 38.1758 43.3606 34.0481 43.3606C32.3414 43.3606 30.476 43.024 28.6304 42.2322V37.5206C30.2974 38.4313 32.4009 39.1043 34.0481 39.1043C35.1594 39.1043 35.9532 38.8074 35.9532 37.8968C35.9532 36.963 34.7685 36.5362 33.3382 36.021C31.1599 35.2363 28.4121 34.2464 28.4121 30.9482C28.4121 27.4443 31.0912 25.3458 35.1197 25.3458C36.7668 25.3458 38.3941 25.6032 40.0412 26.2565V30.9086C38.533 30.097 36.6279 29.6417 35.1197 29.6417Z" fill="white"/>
</svg>
